ffmpeg version 2.8.15-0ubuntu0.16.04.1 Copyright (c) 2000-2018 the FFmpeg developers
  built with gcc 5.4.0 (Ubuntu 5.4.0-6ubuntu1~16.04.10) 20160609
  configuration: --prefix=/usr --extra-version=0ubuntu0.16.04.1 --build-suffix=-ffmpeg --toolchain=hardened --libdir=/usr/lib/x86_64-linux-gnu --incdir=/usr/include/x86_64-linux-gnu --cc=cc --cxx=g++ --enable-gpl --enable-shared --disable-stripping --disable-decoder=libopenjpeg --disable-decoder=libschroedinger --enable-avresample --enable-avisynth --enable-gnutls --enable-ladspa --enable-libass --enable-libbluray --enable-libbs2b --enable-libcaca --enable-libcdio --enable-libflite --enable-libfontconfig --enable-libfreetype --enable-libfribidi --enable-libgme --enable-libgsm --enable-libmodplug --enable-libmp3lame --enable-libopenjpeg --enable-libopus --enable-libpulse --enable-librtmp --enable-libschroedinger --enable-libshine --enable-libsnappy --enable-libsoxr --enable-libspeex --enable-libssh --enable-libtheora --enable-libtwolame --enable-libvorbis --enable-libvpx --enable-libwavpack --enable-libwebp --enable-libx265 --enable-libxvid --enable-libzvbi --enable-openal --enable-opengl --enable-x11grab --enable-libdc1394 --enable-libiec61883 --enable-libzmq --enable-frei0r --enable-libx264 --enable-libopencv
  libavutil      54. 31.100 / 54. 31.100
  libavcodec     56. 60.100 / 56. 60.100
  libavformat    56. 40.101 / 56. 40.101
  libavdevice    56.  4.100 / 56.  4.100
  libavfilter     5. 40.101 /  5. 40.101
  libavresample   2.  1.  0 /  2.  1.  0
  libswscale      3.  1.101 /  3.  1.101
  libswresample   1.  2.101 /  1.  2.101
  libpostproc    53.  3.100 / 53.  3.100
Input #0, image2pipe, from 'pipe:':
  Duration: N/A, bitrate: N/A
    Stream #0:0: Video: ppm, rgb24, 512x512, 12 fps, 12 tbr, 12 tbn, 12 tbc
[libx264 @ 0x2027c00] using cpu capabilities: MMX2 SSE2Fast SSSE3 SSE4.2 AVX
[libx264 @ 0x2027c00] profile High, level 2.2
[libx264 @ 0x2027c00] 264 - core 148 r2643 5c65704 - H.264/MPEG-4 AVC codec - Copyleft 2003-2015 - http://www.videolan.org/x264.html - options: cabac=1 ref=3 deblock=1:0:0 analyse=0x3:0x113 me=hex subme=7 psy=1 psy_rd=1.00:0.00 mixed_ref=1 me_range=16 chroma_me=1 trellis=1 8x8dct=1 cqm=0 deadzone=21,11 fast_pskip=1 chroma_qp_offset=-2 threads=12 lookahead_threads=2 sliced_threads=0 nr=0 decimate=1 interlaced=0 bluray_compat=0 constrained_intra=0 bframes=3 b_pyramid=2 b_adapt=1 b_bias=0 direct=1 weightb=1 open_gop=0 weightp=2 keyint=250 keyint_min=12 scenecut=40 intra_refresh=0 rc_lookahead=40 rc=abr mbtree=1 bitrate=400 ratetol=1.0 qcomp=0.60 qpmin=0 qpmax=69 qpstep=4 ip_ratio=1.40 aq=1:1.00
Output #0, mp4, to './mission_records/0435aa21-56cb-4b47-aaa0-3c05a88a7d5c/video.mp4':
  Metadata:
    encoder         : Lavf56.40.101
    Stream #0:0: Video: h264 (libx264) ([33][0][0][0] / 0x0021), yuv420p, 512x512, q=-1--1, 400 kb/s, 12 fps, 12288 tbn, 12 tbc
    Metadata:
      encoder         : Lavc56.60.100 libx264
Stream mapping:
  Stream #0:0 -> #0:0 (ppm (native) -> h264 (libx264))
frame=   14 fps=0.0 q=0.0 size=       0kB time=00:00:00.00 bitrate=N/A    frame=   19 fps= 17 q=0.0 size=       0kB time=00:00:00.00 bitrate=N/A    frame=   25 fps= 15 q=0.0 size=       0kB time=00:00:00.00 bitrate=N/A    frame=   31 fps= 14 q=0.0 size=       0kB time=00:00:00.00 bitrate=N/A    frame=   37 fps= 14 q=0.0 size=       0kB time=00:00:00.00 bitrate=N/A    frame=   43 fps= 13 q=0.0 size=       0kB time=00:00:00.00 bitrate=N/A    frame=   49 fps= 13 q=0.0 size=       0kB time=00:00:00.00 bitrate=N/A    frame=   55 fps= 12 q=0.0 size=       0kB time=00:00:00.00 bitrate=N/A    frame=   61 fps= 12 q=35.0 size=      70kB time=00:00:00.25 bitrate=2306.8kbits/s    frame=   67 fps= 12 q=36.0 size=      82kB time=00:00:00.75 bitrate= 900.5kbits/s    frame=   73 fps= 12 q=31.0 size=      83kB time=00:00:01.25 bitrate= 545.2kbits/s    frame=   79 fps= 12 q=30.0 size=      83kB time=00:00:01.75 bitrate= 390.0kbits/s    frame=   85 fps= 12 q=23.0 size=      83kB time=00:00:02.25 bitrate= 303.9kbits/s    frame=   91 fps= 12 q=22.0 size=      84kB time=00:00:02.75 bitrate= 249.2kbits/s    frame=   97 fps= 12 q=18.0 size=      92kB time=00:00:03.25 bitrate= 231.0kbits/s    frame=  103 fps= 12 q=18.0 size=     101kB time=00:00:03.75 bitrate= 220.7kbits/s    frame=  109 fps= 12 q=15.0 size=     109kB time=00:00:04.25 bitrate= 210.5kbits/s    frame=  115 fps= 12 q=15.0 size=     179kB time=00:00:04.75 bitrate= 309.3kbits/s    frame=  121 fps= 12 q=25.0 size=     443kB time=00:00:05.25 bitrate= 690.8kbits/s    frame=  127 fps= 11 q=32.0 size=     711kB time=00:00:05.75 bitrate=1013.5kbits/s    frame=  133 fps= 11 q=33.0 size=     832kB time=00:00:06.25 bitrate=1090.2kbits/s    frame=  139 fps= 11 q=34.0 size=     846kB time=00:00:06.75 bitrate=1026.7kbits/s    frame=  145 fps= 11 q=34.0 size=     869kB time=00:00:07.25 bitrate= 981.4kbits/s    frame=  151 fps= 11 q=35.0 size=     897kB time=00:00:07.75 bitrate= 947.8kbits/s    frame=  157 fps= 11 q=35.0 size=     921kB time=00:00:08.25 bitrate= 914.2kbits/s    frame=  163 fps= 11 q=35.0 size=     927kB time=00:00:08.75 bitrate= 867.6kbits/s    frame=  169 fps= 11 q=34.0 size=     930kB time=00:00:09.25 bitrate= 823.3kbits/s    frame=  175 fps= 11 q=34.0 size=     933kB time=00:00:09.75 bitrate= 784.0kbits/s    frame=  181 fps= 11 q=34.0 size=     936kB time=00:00:10.25 bitrate= 747.9kbits/s    frame=  186 fps= 11 q=33.0 size=     939kB time=00:00:10.66 bitrate= 721.0kbits/s    frame=  192 fps= 11 q=33.0 size=     943kB time=00:00:11.16 bitrate= 691.4kbits/s    frame=  198 fps= 11 q=30.0 size=     946kB time=00:00:11.66 bitrate= 664.3kbits/s    frame=  204 fps= 11 q=33.0 size=     950kB time=00:00:12.16 bitrate= 639.6kbits/s    frame=  210 fps= 11 q=33.0 size=     956kB time=00:00:12.66 bitrate= 618.3kbits/s    frame=  216 fps= 11 q=32.0 size=     961kB time=00:00:13.16 bitrate= 598.1kbits/s    frame=  222 fps= 11 q=31.0 size=     962kB time=00:00:13.66 bitrate= 576.8kbits/s    frame=  228 fps= 11 q=30.0 size=     965kB time=00:00:14.16 bitrate= 558.2kbits/s    frame=  233 fps= 11 q=30.0 size=     972kB time=00:00:14.58 bitrate= 546.1kbits/s    frame=  239 fps= 11 q=30.0 size=     998kB time=00:00:15.08 bitrate= 542.0kbits/s    frame=  245 fps= 11 q=31.0 size=    1047kB time=00:00:15.58 bitrate= 550.6kbits/s    frame=  251 fps= 11 q=32.0 size=    1097kB time=00:00:16.08 bitrate= 558.8kbits/s    frame=  257 fps= 11 q=32.0 size=    1128kB time=00:00:16.58 bitrate= 557.1kbits/s    frame=  263 fps= 11 q=32.0 size=    1158kB time=00:00:17.08 bitrate= 555.3kbits/s    frame=  269 fps= 11 q=32.0 size=    1170kB time=00:00:17.58 bitrate= 545.0kbits/s    frame=  275 fps= 11 q=32.0 size=    1180kB time=00:00:18.08 bitrate= 534.4kbits/s    frame=  281 fps= 11 q=32.0 size=    1211kB time=00:00:18.58 bitrate= 533.7kbits/s    frame=  287 fps= 11 q=32.0 size=    1237kB time=00:00:19.08 bitrate= 531.0kbits/s    frame=  293 fps= 11 q=32.0 size=    1259kB time=00:00:19.58 bitrate= 526.7kbits/s    frame=  299 fps= 11 q=32.0 size=    1270kB time=00:00:20.08 bitrate= 517.9kbits/s    frame=  305 fps= 11 q=32.0 size=    1291kB time=00:00:20.58 bitrate= 513.7kbits/s    frame=  311 fps= 11 q=32.0 size=    1308kB time=00:00:21.08 bitrate= 508.1kbits/s    frame=  317 fps= 11 q=32.0 size=    1316kB time=00:00:21.58 bitrate= 499.6kbits/s    frame=  323 fps= 11 q=32.0 size=    1351kB time=00:00:22.08 bitrate= 501.2kbits/s    frame=  329 fps= 11 q=33.0 size=    1400kB time=00:00:22.58 bitrate= 507.7kbits/s    frame=  335 fps= 11 q=33.0 size=    1456kB time=00:00:23.08 bitrate= 516.6kbits/s    frame=  341 fps= 11 q=33.0 size=    1470kB time=00:00:23.58 bitrate= 510.6kbits/s    frame=  346 fps= 11 q=33.0 size=    1495kB time=00:00:24.00 bitrate= 510.3kbits/s    frame=  352 fps= 11 q=33.0 size=    1510kB time=00:00:24.50 bitrate= 505.0kbits/s    frame=  358 fps= 11 q=33.0 size=    1541kB time=00:00:25.00 bitrate= 504.9kbits/s    frame=  364 fps= 11 q=34.0 size=    1565kB time=00:00:25.50 bitrate= 502.9kbits/s    frame=  370 fps= 11 q=34.0 size=    1585kB time=00:00:26.00 bitrate= 499.5kbits/s    frame=  376 fps= 11 q=34.0 size=    1605kB time=00:00:26.50 bitrate= 496.2kbits/s    frame=  382 fps= 11 q=33.0 size=    1615kB time=00:00:27.00 bitrate= 489.9kbits/s    frame=  388 fps= 11 q=30.0 size=    1619kB time=00:00:27.50 bitrate= 482.2kbits/s    frame=  394 fps= 11 q=33.0 size=    1622kB time=00:00:28.00 bitrate= 474.6kbits/s    frame=  400 fps= 11 q=32.0 size=    1637kB time=00:00:28.50 bitrate= 470.6kbits/s    frame=  406 fps= 11 q=32.0 size=    1646kB time=00:00:29.00 bitrate= 464.8kbits/s    frame=  412 fps= 11 q=32.0 size=    1649kB time=00:00:29.50 bitrate= 458.0kbits/s    frame=  418 fps= 11 q=32.0 size=    1656kB time=00:00:30.00 bitrate= 452.1kbits/s    frame=  424 fps= 11 q=31.0 size=    1662kB time=00:00:30.50 bitrate= 446.4kbits/s    frame=  430 fps= 11 q=31.0 size=    1669kB time=00:00:31.00 bitrate= 441.0kbits/s    frame=  436 fps= 11 q=30.0 size=    1669kB time=00:00:31.50 bitrate= 434.2kbits/s    frame=  442 fps= 11 q=30.0 size=    1680kB time=00:00:32.00 bitrate= 430.1kbits/s    frame=  448 fps= 11 q=31.0 size=    1730kB time=00:00:32.50 bitrate= 436.1kbits/s    frame=  454 fps= 11 q=31.0 size=    1785kB time=00:00:33.00 bitrate= 443.0kbits/s    frame=  460 fps= 11 q=31.0 size=    1814kB time=00:00:33.50 bitrate= 443.7kbits/s    frame=  466 fps= 11 q=32.0 size=    1850kB time=00:00:34.00 bitrate= 445.8kbits/s    frame=  472 fps= 11 q=32.0 size=    1892kB time=00:00:34.50 bitrate= 449.3kbits/s    frame=  478 fps= 11 q=32.0 size=    1937kB time=00:00:35.00 bitrate= 453.3kbits/s    frame=  484 fps= 11 q=29.0 size=    1965kB time=00:00:35.50 bitrate= 453.5kbits/s    frame=  490 fps= 11 q=32.0 size=    1979kB time=00:00:36.00 bitrate= 450.3kbits/s    frame=  496 fps= 11 q=32.0 size=    1995kB time=00:00:36.50 bitrate= 447.8kbits/s    frame=  502 fps= 11 q=32.0 size=    2024kB time=00:00:37.00 bitrate= 448.2kbits/s    frame=  508 fps= 11 q=32.0 size=    2060kB time=00:00:37.50 bitrate= 450.1kbits/s    frame=  514 fps= 11 q=32.0 size=    2095kB time=00:00:38.00 bitrate= 451.6kbits/s    frame=  520 fps= 11 q=33.0 size=    2132kB time=00:00:38.50 bitrate= 453.7kbits/s    frame=  526 fps= 11 q=33.0 size=    2164kB time=00:00:39.00 bitrate= 454.4kbits/s    frame=  532 fps= 11 q=33.0 size=    2184kB time=00:00:39.50 bitrate= 452.9kbits/s    frame=  538 fps= 11 q=33.0 size=    2212kB time=00:00:40.00 bitrate= 453.0kbits/s    frame=  544 fps= 11 q=33.0 size=    2243kB time=00:00:40.50 bitrate= 453.8kbits/s    frame=  550 fps= 11 q=33.0 size=    2273kB time=00:00:41.00 bitrate= 454.1kbits/s    frame=  556 fps= 11 q=33.0 size=    2300kB time=00:00:41.50 bitrate= 454.0kbits/s    frame=  562 fps= 11 q=33.0 size=    2313kB time=00:00:42.00 bitrate= 451.2kbits/s    frame=  568 fps= 11 q=33.0 size=    2324kB time=00:00:42.50 bitrate= 447.9kbits/s    frame=  574 fps= 11 q=33.0 size=    2332kB time=00:00:43.00 bitrate= 444.3kbits/s    frame=  580 fps= 11 q=32.0 size=    2336kB time=00:00:43.50 bitrate= 440.0kbits/s    frame=  586 fps= 11 q=32.0 size=    2339kB time=00:00:44.00 bitrate= 435.6kbits/s    frame=  592 fps= 11 q=32.0 size=    2343kB time=00:00:44.50 bitrate= 431.3kbits/s    frame=  598 fps= 11 q=32.0 size=    2347kB time=00:00:45.00 bitrate= 427.3kbits/s    frame=  604 fps= 11 q=31.0 size=    2353kB time=00:00:45.50 bitrate= 423.6kbits/s    frame=  610 fps= 11 q=31.0 size=    2358kB time=00:00:46.00 bitrate= 420.0kbits/s    frame=  616 fps= 11 q=31.0 size=    2364kB time=00:00:46.50 bitrate= 416.4kbits/s    frame=  622 fps= 11 q=30.0 size=    2368kB time=00:00:47.00 bitrate= 412.7kbits/s    frame=  628 fps= 11 q=31.0 size=    2420kB time=00:00:47.50 bitrate= 417.4kbits/s    frame=  634 fps= 11 q=31.0 size=    2489kB time=00:00:48.00 bitrate= 424.8kbits/s    frame=  640 fps= 11 q=32.0 size=    2537kB time=00:00:48.50 bitrate= 428.5kbits/s    frame=  646 fps= 11 q=32.0 size=    2576kB time=00:00:49.00 bitrate= 430.7kbits/s    av_interleaved_write_frame(): Immediate exit requested
frame=  650 fps= 11 q=33.0 Lsize=    2760kB time=00:00:51.33 bitrate= 440.4kbits/s    
video:2764kB audio:0kB subtitle:0kB other streams:0kB global headers:0kB muxing overhead: unknown
[libx264 @ 0x2027c00] frame I:15    Avg QP:24.72  size: 11539
[libx264 @ 0x2027c00] frame P:486   Avg QP:27.07  size:  4916
[libx264 @ 0x2027c00] frame B:149   Avg QP:27.84  size:  2857
[libx264 @ 0x2027c00] consecutive B-frames: 60.6% 25.5%  2.8% 11.1%
[libx264 @ 0x2027c00] mb I  I16..4: 10.0% 50.0% 39.9%
[libx264 @ 0x2027c00] mb P  I16..4:  3.7% 14.9%  5.3%  P16..4: 27.0% 13.4%  7.1%  0.0%  0.0%    skip:28.6%
[libx264 @ 0x2027c00] mb B  I16..4:  0.3%  0.5%  0.6%  B16..8: 27.9% 12.6%  4.2%  direct: 1.1%  skip:52.8%  L0:50.6% L1:45.8% BI: 3.6%
[libx264 @ 0x2027c00] final ratefactor: 27.72
[libx264 @ 0x2027c00] 8x8 transform intra:60.6% inter:55.9%
[libx264 @ 0x2027c00] coded y,uvDC,uvAC intra: 29.7% 36.6% 15.6% inter: 14.5% 8.5% 2.1%
[libx264 @ 0x2027c00] i16 v,h,dc,p: 46% 34% 15%  5%
[libx264 @ 0x2027c00] i8 v,h,dc,ddl,ddr,vr,hd,vl,hu: 29% 14% 38%  3%  3%  3%  4%  2%  3%
[libx264 @ 0x2027c00] i4 v,h,dc,ddl,ddr,vr,hd,vl,hu: 35% 24% 19%  3%  4%  4%  5%  3%  3%
[libx264 @ 0x2027c00] i8c dc,h,v,p: 67% 15% 17%  1%
[libx264 @ 0x2027c00] Weighted P-Frames: Y:0.6% UV:0.2%
[libx264 @ 0x2027c00] ref P L0: 69.8% 10.3% 12.7%  7.1%  0.1%
[libx264 @ 0x2027c00] ref B L0: 81.8% 18.1%  0.1%
[libx264 @ 0x2027c00] ref B L1: 98.2%  1.8%
[libx264 @ 0x2027c00] kb/s:441.32
Exiting normally, received signal 2.
